<?xml version="1.0" encoding="utf-8"?>
<!-- Generator: Adobe Illustrator 25.4.1, SVG Export Plug-In . SVG Version: 6.00 Build 0)  -->
<svg version="1.1" id="Calque_1" xmlns="http://www.w3.org/2000/svg" xmlns:xlink="http://www.w3.org/1999/xlink" x="0px" y="0px"
	 viewBox="0 0 37 40" style="enable-background:new 0 0 37 40;" xml:space="preserve">
<style type="text/css">
	.st0{fill:url(#SVGID_1_);}
	.st1{fill:url(#SVGID_00000011715025883629668720000001681134579557202563_);}
</style>
<g>
	
		<radialGradient id="SVGID_1_" cx="35.6433" cy="-9.3002" r="63.074" gradientTransform="matrix(0.9852 0.1711 -0.1711 0.9852 3.7544 -3.7957)" gradientUnits="userSpaceOnUse">
		<stop  offset="0" style="stop-color:#634832"/>
		<stop  offset="1" style="stop-color:#3A2516"/>
	</radialGradient>
	<path class="st0" d="M22.7,0.1C22.1,0,21.5,0,20.8,0c-0.1,0.2-0.2,0.3-0.3,0.5c-0.5,0.8-0.8,1.6-1.1,2.5c-0.6,1.7-0.8,3.5-0.8,5.4
		c0,3.8,0.8,7.8,1.7,11.9c0.8,4,1.7,8.1,1.5,11.8c-0.1,1.9-0.5,3.7-1.2,5.3c-0.4,0.8-0.8,1.6-1.4,2.4C19.1,39.9,19,39.9,19,40
		c6.1-1.1,11.8-8.3,13.4-17.6C34.3,11.3,29.9,1.4,22.7,0.1z"/>
	
		<radialGradient id="SVGID_00000080192608980600120640000003517823413241797256_" cx="35.759" cy="-8.6341" r="63.074" gradientTransform="matrix(0.9852 0.1711 -0.1711 0.9852 3.7544 -3.7957)" gradientUnits="userSpaceOnUse">
		<stop  offset="0" style="stop-color:#634832"/>
		<stop  offset="1" style="stop-color:#3A2516"/>
	</radialGradient>
	<path style="fill:url(#SVGID_00000080192608980600120640000003517823413241797256_);" d="M14.3,39.9c0.6,0.1,1.2,0.1,1.9,0.1
		c0.1-0.2,0.2-0.3,0.3-0.5c0.5-0.8,0.8-1.6,1.1-2.5c0.6-1.7,0.8-3.5,0.8-5.4c0-3.8-0.8-7.8-1.7-11.9c-0.8-4-1.7-8.1-1.5-11.8
		c0.1-1.9,0.5-3.7,1.2-5.3c0.4-0.8,0.8-1.6,1.4-2.4C17.9,0.1,18,0.1,18,0C11.9,1.1,6.3,8.3,4.6,17.6C2.7,28.7,7.1,38.6,14.3,39.9z"
		/>
</g>
</svg>
