<?xml version="1.0" encoding="utf-8"?>
<!-- Generator: Adobe Illustrator 25.4.1, SVG Export Plug-In . SVG Version: 6.00 Build 0)  -->
<svg version="1.1" id="Calque_1" xmlns="http://www.w3.org/2000/svg" xmlns:xlink="http://www.w3.org/1999/xlink" x="0px" y="0px"
	 viewBox="0 0 1219.1 451.5" style="enable-background:new 0 0 1219.1 451.5;" xml:space="preserve">
<style type="text/css">
	.st0{fill:#FFFFFF;}
</style>
<g>
	<path class="st0" d="M500.2,259.8l58.5-81.8c0.5-0.7,0.9-1.8,0.9-2.7c0-2.5-2-4.6-4.6-4.6c-1.4,0-2.9,0.8-3.7,1.9L434.4,336.2
		V175.2c0-2.5-2-4.6-4.6-4.6h-0.1c-2.5,0-4.5,2.1-4.5,4.6v175.2c0,2.5,2,4.6,4.6,4.6c1.4,0,2.9-0.8,3.7-1.9l61.1-85.5l61.1,85.5
		c0.8,1.1,2.3,1.9,3.7,1.9c2.5,0,4.6-2.1,4.6-4.6c0-0.9-0.3-1.9-0.9-2.7L500.2,259.8z"/>
	<path class="st0" d="M674.3,173.4c-0.7-1.6-2.4-2.8-4.2-2.8l-0.2,0c-1.7,0.1-3.4,1.2-4,2.8l-75,175.1c-0.3,0.6-0.4,1.3-0.4,2
		c0,2.5,2,4.6,4.6,4.6c1.8,0,3.6-1.2,4.2-2.8l70.9-165.4L741,352.1c0.7,1.7,2.4,2.9,4.3,2.9c2.5,0,4.6-2,4.6-4.6
		c0-0.6-0.2-1.4-0.4-1.9L674.3,173.4z"/>
	<path class="st0" d="M993.6,175.3c0-2.5-2-4.6-4.6-4.6c-1.8,0-3.6,1.2-4.2,2.8l-70.9,165.4l-38.8-90.6l30.5-71.1
		c0.3-0.6,0.4-1.3,0.4-1.9c0-2.5-2-4.6-4.6-4.6c-1.8,0-3.6,1.2-4.2,2.8l-27.1,63.2L843,173.5c-0.7-1.6-2.5-2.8-4.3-2.8c0,0,0,0,0,0
		c-2.5,0-4.5,2.1-4.5,4.6c0,0.6,0.2,1.3,0.4,1.8l30.5,71.2l-38.8,90.6l-70.9-165.3c-0.7-1.6-2.5-2.8-4.3-2.8c0,0,0,0,0,0
		c-2.5,0-4.5,2.1-4.5,4.6c0,0.6,0.2,1.3,0.4,1.8l75.1,175.2c0.7,1.6,2.4,2.8,4.2,2.8c1.8,0,3.5-1.1,4.2-2.8l39.6-92.4l39.6,92.4
		c0.7,1.6,2.4,2.8,4.2,2.8c1.8,0,3.5-1.1,4.2-2.8l75.1-175.1C993.4,176.6,993.6,175.9,993.6,175.3z"/>
	<path class="st0" d="M1149.6,348.6l-75.1-175.2c-0.7-1.6-2.4-2.8-4.2-2.8l-0.2,0c-1.7,0.1-3.4,1.2-4,2.8l-75,175.1
		c-0.3,0.6-0.4,1.3-0.4,2c0,2.5,2,4.6,4.6,4.6c1.8,0,3.6-1.2,4.2-2.8l70.9-165.4l70.8,165.3c0.7,1.7,2.4,2.9,4.3,2.9
		c2.5,0,4.6-2,4.6-4.6C1150,349.8,1149.8,349.1,1149.6,348.6z"/>
</g>
<g>
	<path class="st0" d="M265.7,354.6c-0.1,3.6-0.5,7.2-1.1,10.7c-0.1-0.6-0.3-1.2-0.4-1.8c-3.8-15.2-10.9-29.6-20.7-41.7
		c-2.5-3-5-5.9-7.8-8.6c-2.8-2.8-5.5-5.2-8.2-7.7c-5.5-4.9-11-9.8-16.6-14.6c-11.2-9.6-22.4-19-33.4-28.6
		c-11-9.6-21.8-19.4-31.8-30.1c-5-5.3-9.7-10.9-13.9-16.8c-2.1-3-4-6.1-5.7-9.3c-1.7-3.2-3.1-6.6-4.2-10.1c0.8,3.6,2,7.1,3.5,10.4
		c1.5,3.4,3.3,6.6,5.1,9.8c3.8,6.3,8.2,12.3,12.9,18c9.3,11.5,19.5,22.1,29.9,32.6c10.4,10.4,20.9,20.6,31.3,30.9
		c5.2,5.1,10.3,10.3,15.4,15.5c2.5,2.6,5.1,5.3,7.3,7.8c2.3,2.6,4.4,5.3,6.4,8.2c7.9,11.3,13.1,24.2,15.5,37.6
		c0.9,4.8,1.4,9.7,1.6,14.6c-5.2,0.5-10.5,0.7-15.9,0.7c-91,0-164.7-70.7-164.7-158C70,147.1,127.7,82.8,204,69
		c-0.9,0.9-1.8,1.8-2.6,2.7c-6.3,6.7-11,13.5-14.7,20.3c-7.2,13.7-9.5,27.9-8.5,42.2c2,28.8,17.4,58.5,34.5,88.4
		c17.1,29.9,35.8,59.8,45.8,89C263.6,326.2,266.3,340.6,265.7,354.6z"/>
	<path class="st0" d="M242.5,135.1c-5.8,0-11.5,0.4-17.1,1.2c-0.7,1.1-1.3,2.1-1.9,3.2c-2.9,5.3-5,10.6-6.2,16
		c-2.5,10.8-1.8,21.9,1.1,33.3c5.7,22.6,20,46.1,34.1,69.6c14.1,23.5,28,47,32.1,69.7c2,11.4,1.7,22.5-2.5,33.4
		c-2.1,5.4-5.1,10.8-9.3,16c-0.4,0.5-0.7,0.9-1.1,1.4c54.2-13.1,94.4-61.9,94.4-120.1C366.1,190.4,310.8,135.1,242.5,135.1z"/>
</g>
</svg>
