<?xml version="1.0" encoding="utf-8"?>
<!-- Generator: Adobe Illustrator 25.4.1, SVG Export Plug-In . SVG Version: 6.00 Build 0)  -->
<svg version="1.1" id="Calque_1" xmlns="http://www.w3.org/2000/svg" xmlns:xlink="http://www.w3.org/1999/xlink" x="0px" y="0px"
	 viewBox="0 0 40 40" style="enable-background:new 0 0 40 40;" xml:space="preserve">
<style type="text/css">
	.st0{fill:url(#SVGID_1_);}
	.st1{fill:url(#SVGID_00000182488989057429849170000017676801853769061047_);}
</style>
<g>
	<linearGradient id="SVGID_1_" gradientUnits="userSpaceOnUse" x1="9.4432" y1="10.7584" x2="21.1484" y2="40.486">
		<stop  offset="0" style="stop-color:#118E70"/>
		<stop  offset="1" style="stop-color:#135E4C"/>
	</linearGradient>
	<path class="st0" d="M26.3,36.5c0,0.5-0.1,0.9-0.1,1.4c0-0.1,0-0.2-0.1-0.2c-0.5-1.9-1.4-3.8-2.6-5.3c-0.3-0.4-0.6-0.8-1-1.1
		c-0.4-0.4-0.7-0.7-1.1-1c-0.7-0.6-1.4-1.2-2.1-1.9c-1.4-1.2-2.9-2.4-4.3-3.7c-1.4-1.2-2.8-2.5-4.1-3.8c-0.6-0.7-1.2-1.4-1.8-2.1
		c-0.3-0.4-0.5-0.8-0.7-1.2c-0.2-0.4-0.4-0.8-0.5-1.3c0.1,0.5,0.3,0.9,0.4,1.3C8.5,18,8.7,18.4,9,18.8c0.5,0.8,1.1,1.6,1.6,2.3
		c1.2,1.5,2.5,2.8,3.8,4.2c1.3,1.3,2.7,2.6,4,3.9c0.7,0.7,1.3,1.3,2,2c0.3,0.3,0.7,0.7,0.9,1c0.3,0.3,0.6,0.7,0.8,1
		c1,1.4,1.7,3.1,2,4.8c0.1,0.6,0.2,1.2,0.2,1.9C23.7,40,23,40,22.3,40c-11.6,0-21-9-21-20.2C1.3,10,8.7,1.8,18.4,0
		c-0.1,0.1-0.2,0.2-0.3,0.3c-0.8,0.9-1.4,1.7-1.9,2.6c-0.9,1.8-1.2,3.6-1.1,5.4c0.3,3.7,2.2,7.5,4.4,11.3c2.2,3.8,4.6,7.6,5.8,11.4
		C26,32.8,26.3,34.7,26.3,36.5z"/>
	
		<radialGradient id="SVGID_00000107555188122818993050000012258212940116649399_" cx="22.8023" cy="8.1424" r="34.7098" gradientUnits="userSpaceOnUse">
		<stop  offset="0" style="stop-color:#634832"/>
		<stop  offset="1" style="stop-color:#3A2516"/>
	</radialGradient>
	<path style="fill:url(#SVGID_00000107555188122818993050000012258212940116649399_);" d="M23.3,8.4c-0.7,0-1.5,0.1-2.2,0.2
		C21,8.7,21,8.9,20.9,9c-0.4,0.7-0.6,1.4-0.8,2c-0.3,1.4-0.2,2.8,0.1,4.2c0.7,2.9,2.6,5.9,4.4,8.9c1.8,3,3.6,6,4.1,8.9
		c0.3,1.5,0.2,2.9-0.3,4.3c-0.3,0.7-0.7,1.4-1.2,2c0,0.1-0.1,0.1-0.1,0.2c6.9-1.7,12.1-7.9,12.1-15.3C39.1,15.5,32,8.4,23.3,8.4z"/>
</g>
</svg>
