<?xml version="1.0" encoding="utf-8"?>
<!-- Generator: Adobe Illustrator 25.4.1, SVG Export Plug-In . SVG Version: 6.00 Build 0)  -->
<svg version="1.1" id="Calque_1" xmlns="http://www.w3.org/2000/svg" xmlns:xlink="http://www.w3.org/1999/xlink" x="0px" y="0px"
	 viewBox="0 0 100 100" style="enable-background:new 0 0 100 100;" xml:space="preserve">
<style type="text/css">
	.st0{fill:#135E4C;}
	.st1{fill:#1D3F36;}
	.st2{fill:#19453B;}
	.st3{fill:#145A48;}
</style>
<g>
	<path class="st0" d="M89.8,49.6c-1.9-2.2-4.4-4.9-5.4-8.8c-1.1-3.9-0.3-7.6,0.3-10.5c0-0.2-0.1-0.4-0.2-0.4l-0.1,0
		c-2.8-0.9-6.3-2.1-9.2-5c-2.9-2.9-4-6.4-5-9.2l0-0.1c-0.1-0.2-0.2-0.3-0.4-0.2c-1.9,0.4-4,0.8-6.3,0.8c-1.5,0-2.9-0.2-4.2-0.5
		c-3.9-1-6.6-3.5-8.8-5.4L50.3,10c-0.1-0.1-0.4-0.1-0.5,0l-0.2,0.1c-2.2,2-5,4.4-8.8,5.4c-1.3,0.4-2.7,0.5-4.2,0.5
		c-2.3,0-4.4-0.4-6.3-0.8c-0.2,0-0.4,0.1-0.4,0.2l0,0.1c-1,2.8-2.1,6.3-5,9.2c-2.9,2.9-6.4,4-9.2,5l-0.1,0c-0.2,0.1-0.3,0.2-0.3,0.4
		c0.6,2.9,1.3,6.6,0.3,10.5c-1,3.9-3.5,6.6-5.4,8.8L10,49.8c-0.1,0.1-0.1,0.4,0,0.5l0.2,0.2c1.9,2.2,4.4,4.9,5.4,8.8
		c1.1,3.9,0.3,7.6-0.3,10.5c0,0.2,0.1,0.4,0.2,0.4l0.1,0c2.8,0.9,6.3,2.1,9.2,5s4,6.4,5,9.2l0,0.1c0.1,0.2,0.2,0.3,0.4,0.2
		c1.9-0.4,4-0.8,6.3-0.8c1.5,0,2.9,0.2,4.2,0.5c3.9,1,6.6,3.5,8.8,5.4l0.2,0.2c0.1,0.1,0.4,0.1,0.5,0l0.2-0.1c2.2-2,5-4.4,8.8-5.4
		c1.3-0.4,2.7-0.5,4.2-0.5c2.3,0,4.4,0.4,6.3,0.8c0.2,0,0.4-0.1,0.4-0.2l1.2,0.3l-1.2-0.4c0.9-2.8,2.1-6.3,5-9.2
		c2.9-2.9,6.4-4,9.2-5l0.1,0c0.2-0.1,0.3-0.2,0.3-0.4c-0.6-2.9-1.3-6.6-0.3-10.5c1-3.9,3.5-6.6,5.4-8.8l0.2-0.2
		c0.1-0.1,0.1-0.4,0-0.5L89.8,49.6z M37,56.3c0,1.2-1,2.2-2.2,2.2c-0.8,0-1.5-0.4-1.9-1.1l-6.3-10.1V57c0,0.9-0.7,1.6-1.6,1.6
		s-1.6-0.7-1.6-1.6V43.6c0-1.2,1-2.2,2.2-2.2c0.8,0,1.4,0.4,1.8,1l6.4,10.4V43c0-0.9,0.7-1.6,1.6-1.6c0.9,0,1.6,0.7,1.6,1.6V56.3z
		 M53.2,42.9c0,0.8-0.6,1.4-1.4,1.4h-7.6v4.3h7.2c0.8,0,1.4,0.6,1.4,1.4c0,0.8-0.6,1.4-1.4,1.4h-7.2v4.2h7.6c0.8,0,1.4,0.6,1.4,1.4
		c0,0.8-0.6,1.4-1.4,1.4h-9.5c-0.9,0-1.6-0.7-1.6-1.6V43c0-0.9,0.7-1.6,1.6-1.6h9.5C52.6,41.4,53.2,42.1,53.2,42.9L53.2,42.9z
		 M77,43.5l-3.2,13.3c-0.3,1.1-1.2,1.8-2.3,1.8c-1.1,0-2-0.7-2.3-1.8l-2.9-11.1l-2.9,11.1c-0.3,1-1.2,1.8-2.3,1.8h-0.1
		c-1.1,0-2-0.8-2.3-1.8l-3.2-13.3c-0.3-1.1,0.5-2.1,1.6-2.1h0.1c0.8,0,1.5,0.5,1.6,1.3l2.3,10.5l2.6-9.8c0.3-1.2,1.4-2,2.6-2
		c1.2,0,2.3,0.8,2.6,2l2.5,10l2.3-10.7c0.2-0.8,0.9-1.3,1.6-1.3C76.4,41.4,77.2,42.4,77,43.5z"/>
	<path class="st0" d="M96.1,57.3c1.9-2.2,3.9-4.4,3.9-7.3c0-2.8-2-5.1-3.9-7.3c-1.3-1.4-2.6-2.9-2.9-4.3c-0.4-1.4,0-3.4,0.4-5.4
		c0.6-2.8,1.1-5.7-0.2-8.1c-1.4-2.4-4.2-3.4-7-4.3c-1.9-0.6-3.8-1.3-4.8-2.3c-1-1-1.7-2.9-2.3-4.8c-0.9-2.7-1.9-5.6-4.3-7
		c-2.4-1.4-5.3-0.8-8.1-0.2C65,6.9,63,7.3,61.6,6.9c-1.3-0.4-2.8-1.7-4.3-2.9C55.1,2,52.8,0,50,0c-2.8,0-5.1,2-7.3,3.9
		c-1.4,1.3-2.9,2.6-4.3,2.9c-1.4,0.4-3.4,0-5.4-0.4c-2.8-0.6-5.7-1.1-8.1,0.2c-2.4,1.4-3.4,4.2-4.3,7c-0.6,1.9-1.3,3.8-2.3,4.8
		c-1,1-2.9,1.7-4.8,2.3c-2.7,0.9-5.6,1.9-7,4.3c-1.4,2.4-0.8,5.3-0.2,8.1C6.9,35,7.3,37,6.9,38.4c-0.4,1.3-1.7,2.8-2.9,4.3
		C2,44.9,0,47.2,0,50c0,2.8,2,5.1,3.9,7.3c1.3,1.4,2.6,2.9,2.9,4.3c0.4,1.4,0,3.4-0.4,5.4c-0.6,2.8-1.1,5.7,0.2,8.1
		c1.4,2.4,4.2,3.4,7,4.3c1.9,0.6,3.8,1.3,4.8,2.3c1,1,1.7,2.9,2.3,4.8c0.9,2.7,1.9,5.6,4.3,7c2.4,1.4,5.3,0.8,8.1,0.2
		c1.9-0.4,3.9-0.8,5.4-0.4c1.3,0.4,2.8,1.7,4.3,2.9c2.2,1.9,4.4,3.9,7.3,3.9c2.8,0,5.1-2,7.3-3.9c1.4-1.3,2.9-2.6,4.3-2.9
		c1.4-0.4,3.4,0,5.4,0.4c2.8,0.6,5.7,1.1,8.1-0.2c2.4-1.4,3.4-4.2,4.3-7c0.6-1.9,1.3-3.8,2.3-4.8c1-1,2.9-1.7,4.8-2.3
		c2.7-0.9,5.6-1.9,7-4.3c1.4-2.4,0.8-5.3,0.2-8.1c-0.4-1.9-0.8-3.9-0.4-5.4C93.5,60.2,94.8,58.7,96.1,57.3z M91.8,51.9l-0.2,0.2
		c-1.8,2-4,4.5-4.9,7.8c-0.9,3.4-0.2,6.7,0.3,9.4c0.3,1.4-0.5,2.8-1.9,3.3l-0.1,0c-2.6,0.9-5.8,1.9-8.2,4.4
		c-2.4,2.4-3.5,5.6-4.4,8.2l0,0.1c-0.5,1.4-1.9,2.2-3.3,1.9c-1.8-0.4-3.7-0.7-5.8-0.7c-1.3,0-2.5,0.1-3.6,0.4
		c-3.3,0.9-5.8,3.1-7.8,4.9l-0.2,0.2c-0.5,0.5-1.2,0.7-1.9,0.7c-0.7,0-1.4-0.2-1.9-0.7l-0.2-0.2c-2-1.8-4.5-4-7.8-4.9
		c-1.1-0.3-2.3-0.4-3.6-0.4c-2.1,0-4.1,0.4-5.8,0.7c-1.4,0.3-2.8-0.5-3.3-1.9l0-0.1c-0.9-2.6-1.9-5.8-4.4-8.2
		c-2.4-2.4-5.6-3.5-8.2-4.4l-0.1,0c-1.4-0.5-2.2-1.9-1.9-3.3c0.5-2.7,1.2-6,0.3-9.4c-0.9-3.3-3.1-5.8-4.9-7.8l-0.1-0.1
		c-1-1.1-1-2.7,0-3.8l0.1-0.2c1.8-2,4-4.5,4.9-7.8c0.9-3.4,0.2-6.7-0.3-9.4c-0.3-1.4,0.5-2.8,1.9-3.3l0.1,0c2.6-0.9,5.8-1.9,8.2-4.4
		c2.4-2.4,3.5-5.6,4.4-8.2l0-0.1c0.5-1.4,1.9-2.2,3.3-1.9c1.8,0.4,3.7,0.7,5.8,0.7c1.3,0,2.4-0.1,3.6-0.4c3.3-0.9,5.8-3.1,7.8-4.9
		l0.2-0.2c1.1-1,2.7-1,3.8,0l0.2,0.2c2,1.8,4.5,4,7.8,4.9c1.1,0.3,2.3,0.4,3.6,0.4c2.1,0,4.1-0.4,5.8-0.7c1.4-0.3,2.8,0.5,3.3,1.9
		l0,0c0.9,2.6,1.9,5.8,4.4,8.2c2.4,2.4,5.6,3.5,8.2,4.4l0.1,0c1.4,0.5,2.2,1.9,1.9,3.3c-0.5,2.7-1.2,6-0.3,9.4
		c0.9,3.3,3.1,5.8,4.9,7.8l0.2,0.2C92.8,49.2,92.8,50.8,91.8,51.9z"/>
</g>
<rect x="-40" y="-3" class="st1" width="23.3" height="23.3"/>
<rect x="-40" y="22.6" class="st2" width="23.3" height="23.3"/>
<rect x="-40" y="48.2" class="st3" width="23.3" height="23.3"/>
<rect x="-40" y="73.7" class="st0" width="23.3" height="23.3"/>
</svg>
